# xmcd
#
# Track frame offsets:
# 150
# 23264
# 42229
# 63606
# 85408
# 109585
# 130849
# 151714
# 172503
# 188618
#
# Disc length: 2910 seconds
#
# Revision: 1
# Processed by: cddbd v1.5.1PL0 Copyright (c) Steve Scherf et al.
# Submitted via: Easy CD Ripper v2.27
#
DISCID=680b5c0a
DTITLE=張學友 - 吻別
DYEAR=1993
DGENRE=Blues
TTITLE0=吻別 - 張學友
TTITLE1=情網 - 張學友
TTITLE2=LINDA - 張學友
TTITLE3=一路上有你 - 張學友
TTITLE4=你給我的愛最多 - 張學友
TTITLE5=每天愛你多一些 - 張學友
TTITLE6=相信她•關心她 - 張學友
TTITLE7=戀愛的人都一樣 - 張學友
TTITLE8=擁抱陽光 - 張學友
TTITLE9=秋意濃 - 張學友
EXTD=吻別
EXTT0=
EXTT1=
EXTT2=
EXTT3=
EXTT4=
EXTT5=
EXTT6=
EXTT7=
EXTT8=
EXTT9=
PLAYORDER=
